<?xml version="1.0" encoding="UTF-8"?><svg id="a" xmlns="http://www.w3.org/2000/svg" viewBox="0 0 36.43 40"><defs><style>.b{fill-rule:evenodd;}.b,.c{fill:#fff;}</style></defs><path class="b" d="M32.75,6.18l-5.71-1.54v1.93l5.23,1.41c1.65.44,2.64,2.15,2.19,3.81l-6.42,24.04c-.17.64-.53,1.18-1,1.57v.73h-9.58l6.31,1.7c2.65.71,5.37-.86,6.07-3.52l6.42-24.04c.71-2.65-.86-5.38-3.51-6.1Z"/><path class="b" d="M22.86,2.14H5.71c-1.97,0-3.57,1.6-3.57,3.57v28.57c0,1.97,1.6,3.57,3.57,3.57h17.14c1.97,0,3.57-1.6,3.57-3.57V5.71c0-1.97-1.6-3.57-3.57-3.57ZM5.71,0C2.56,0,0,2.56,0,5.71v28.57c0,3.16,2.56,5.71,5.71,5.71h17.14c3.16,0,5.71-2.56,5.71-5.71V5.71c0-3.16-2.56-5.71-5.71-5.71H5.71Z"/><polygon class="c" points="20.19 11.43 17.08 16.38 16.74 15.05 15.51 18.67 18.06 17.48 18.07 18.68 23.25 16.6 20.36 16.52 22.31 13.72 19.32 15.32 20.19 11.43"/><polygon class="c" points="11.7 12.95 10.35 13.42 10.85 15.74 3.36 18.39 3.78 19.57 11.27 16.91 12.33 19.03 14.41 18.29 13.78 15.36 11.7 12.95"/><path class="c" d="M10.13,19.45v.83h-3.62c.65,1.58,2.09,2.67,3.62,3.03v1.34h2.39c-.49,1.24-1.37,2.27-2.38,3.16h-1.04v.76h11.59v-.76h-1.12c-1.17-.89-2.04-1.92-2.51-3.16h2.59v-1.19c.8-.29,1.61-.79,2.41-1.49-.81-.71-1.6-1.11-2.41-1.3v-1.21h-9.52Z"/></svg>