<svg width="18" height="30" viewBox="0 0 18 30" fill="none" xmlns="http://www.w3.org/2000/svg">
<path d="M14.4964 0.996096L0 15.0061L14.4964 29.016C14.8915 29.3966 15.4217 29.6047 15.9702 29.5944C16.5187 29.5842 17.0406 29.3564 17.4212 28.9613C17.8018 28.5662 18.0099 28.0361 17.9996 27.4876C17.9894 26.9391 17.7616 26.4171 17.3665 26.0365L5.94694 15.0061L17.3665 3.96349C17.7616 3.58289 17.9894 3.06092 17.9996 2.51241C18.0099 1.9639 17.8018 1.43377 17.4212 1.03866C17.0406 0.643549 16.5187 0.41581 15.9702 0.405548C15.4217 0.395285 14.8915 0.603336 14.4964 0.983934V0.996096Z" fill="#414141"/>
</svg>
