<svg width="32" height="32" viewBox="0 0 32 32" fill="none" xmlns="http://www.w3.org/2000/svg">
<path d="M24 24L20.1396 20.1396M20.1396 20.1396C20.7999 19.4793 21.3237 18.6953 21.6811 17.8326C22.0385 16.9698 22.2224 16.0451 22.2224 15.1112C22.2224 14.1774 22.0385 13.2526 21.6811 12.3899C21.3237 11.5271 20.7999 10.7432 20.1396 10.0828C19.4793 9.42249 18.6953 8.89868 17.8326 8.54131C16.9698 8.18394 16.0451 8 15.1112 8C14.1774 8 13.2526 8.18394 12.3899 8.54131C11.5271 8.89868 10.7432 9.42249 10.0828 10.0828C8.74921 11.4164 8 13.2252 8 15.1112C8 16.9972 8.74921 18.806 10.0828 20.1396C11.4164 21.4732 13.2252 22.2224 15.1112 22.2224C16.9972 22.2224 18.806 21.4732 20.1396 20.1396Z" stroke="white" stroke-width="2" stroke-linecap="round" stroke-linejoin="round"/>
</svg>
